STARTFONT 2.1
COMMENT
COMMENT Converted from OpenType font "eight-bit-dragon.otf" by "otf2bdf 3.0".
COMMENT
FONT -FreeType-Eight Bit Dragon-Medium-R-Normal--17-120-100-100-P-98-ISO10646-1
SIZE 12 100 100
FONTBOUNDINGBOX 12 18 0 -2
STARTPROPERTIES 19
FOUNDRY "FreeType"
FAMILY_NAME "Eight Bit Dragon"
WEIGHT_NAME "Medium"
SLANT "R"
SETWIDTH_NAME "Normal"
ADD_STYLE_NAME ""
PIXEL_SIZE 17
POINT_SIZE 120
RESOLUTION_X 100
RESOLUTION_Y 100
SPACING "P"
AVERAGE_WIDTH 98
CHARSET_REGISTRY "ISO10646"
CHARSET_ENCODING "1"
FONT_ASCENT 15
FONT_DESCENT 1
COPYRIGHT "Copyright Chequered Ink Ltd. 2018"
_OTF_FONTFILE "eight-bit-dragon.otf"
_OTF_PSNAME "Eight-Bit-Dragon"
ENDPROPERTIES
CHARS 343
STARTCHAR 0020
ENCODING 32
SWIDTH 300 0
DWIDTH 5 0
BBX 0 0 0 0
BITMAP
ENDCHAR
STARTCHAR 0021
ENCODING 33
SWIDTH 300 0
DWIDTH 5 0
BBX 3 15 0 0
BITMAP
E0
E0
E0
E0
E0
E0
E0
E0
E0
E0
E0
E0
00
E0
E0
ENDCHAR
STARTCHAR 0022
ENCODING 34
SWIDTH 600 0
DWIDTH 10 0
BBX 8 6 1 9
BITMAP
E7
E7
E7
E7
E7
66
ENDCHAR
STARTCHAR 0023
ENCODING 35
SWIDTH 840 0
DWIDTH 14 0
BBX 12 15 0 0
BITMAP
39C0
39C0
39C0
FFF0
FFF0
39C0
39C0
39C0
39C0
39C0
FFF0
FFF0
39C0
39C0
39C0
ENDCHAR
STARTCHAR 0024
ENCODING 36
SWIDTH 720 0
DWIDTH 12 0
BBX 10 15 0 0
BITMAP
0E00
0F00
7F00
E1C0
E1C0
E000
7F00
7F00
0100
01C0
E1C0
E1C0
7F00
7E00
0E00
ENDCHAR
STARTCHAR 0025
ENCODING 37
SWIDTH 720 0
DWIDTH 12 0
BBX 10 15 0 0
BITMAP
E1C0
E7C0
E700
0700
0700
0E00
0E00
0E00
3800
3800
3800
3800
E1C0
E1C0
E1C0
ENDCHAR
STARTCHAR 0026
ENCODING 38
SWIDTH 720 0
DWIDTH 12 0
BBX 10 15 0 0
BITMAP
3E00
FF00
E700
E700
E600
E600
3FC0
3FC0
E600
E600
E700
E700
E700
3EC0
3EC0
ENDCHAR
STARTCHAR 0027
ENCODING 39
SWIDTH 300 0
DWIDTH 5 0
BBX 3 7 0 8
BITMAP
E0
E0
E0
20
20
C0
C0
ENDCHAR
STARTCHAR 0028
ENCODING 40
SWIDTH 540 0
DWIDTH 9 0
BBX 7 15 0 0
BITMAP
0E
3E
38
E0
E0
E0
E0
E0
E0
E0
E0
E0
38
0E
0E
ENDCHAR
STARTCHAR 0029
ENCODING 41
SWIDTH 540 0
DWIDTH 9 0
BBX 7 15 0 0
BITMAP
E0
F8
38
0E
0E
0E
0E
0E
0E
0E
0E
0E
38
E0
E0
ENDCHAR
STARTCHAR 002A
ENCODING 42
SWIDTH 600 0
DWIDTH 10 0
BBX 8 9 0 6
BITMAP
18
18
FF
FF
3E
3E
3E
E7
E7
ENDCHAR
STARTCHAR 002B
ENCODING 43
SWIDTH 720 0
DWIDTH 12 0
BBX 10 9 0 3
BITMAP
0E00
0E00
0E00
0E00
FFC0
FFC0
0E00
0E00
0E00
ENDCHAR
STARTCHAR 002C
ENCODING 44
SWIDTH 300 0
DWIDTH 5 0
BBX 3 7 0 -2
BITMAP
E0
E0
E0
20
20
C0
C0
ENDCHAR
STARTCHAR 002D
ENCODING 45
SWIDTH 720 0
DWIDTH 12 0
BBX 10 2 0 7
BITMAP
FFC0
FFC0
ENDCHAR
STARTCHAR 002E
ENCODING 46
SWIDTH 300 0
DWIDTH 5 0
BBX 3 3 0 0
BITMAP
E0
E0
E0
ENDCHAR
STARTCHAR 002F
ENCODING 47
SWIDTH 720 0
DWIDTH 12 0
BBX 10 15 0 0
BITMAP
01C0
07C0
0700
0700
0700
0E00
0E00
0E00
3800
3800
3800
3800
E000
E000
E000
ENDCHAR
STARTCHAR 0030
ENCODING 48
SWIDTH 720 0
DWIDTH 12 0
BBX 10 15 0 0
BITMAP
7F00
FFC0
E1C0
E1C0
E1C0
E1C0
E1C0
E1C0
E1C0
E1C0
E1C0
E1C0
E1C0
7F00
7F00
ENDCHAR
STARTCHAR 0031
ENCODING 49
SWIDTH 720 0
DWIDTH 12 0
BBX 10 15 0 0
BITMAP
0E00
0E00
3E00
FE00
FE00
0E00
0E00
0E00
0E00
0E00
0E00
0E00
0E00
FFC0
FFC0
ENDCHAR
STARTCHAR 0032
ENCODING 50
SWIDTH 720 0
DWIDTH 12 0
BBX 10 15 0 0
BITMAP
7F00
FFC0
E1C0
E1C0
01C0
01C0
7F00
7F00
E000
E000
E000
E000
E1C0
FFC0
FFC0
ENDCHAR
STARTCHAR 0033
ENCODING 51
SWIDTH 720 0
DWIDTH 12 0
BBX 10 15 0 0
BITMAP
7F00
FFC0
E1C0
E1C0
01C0
01C0
7F00
7F00
01C0
01C0
E1C0
E1C0
E1C0
7F00
7F00
ENDCHAR
STARTCHAR 0034
ENCODING 52
SWIDTH 720 0
DWIDTH 12 0
BBX 10 15 0 0
BITMAP
E1C0
E1C0
E1C0
E1C0
E1C0
E1C0
E1C0
E1C0
E1C0
E1C0
FFC0
FFC0
01C0
01C0
01C0
ENDCHAR
STARTCHAR 0035
ENCODING 53
SWIDTH 720 0
DWIDTH 12 0
BBX 10 15 0 0
BITMAP
FFC0
FFC0
E1C0
E000
E000
E000
FF00
FF00
01C0
01C0
E1C0
E1C0
E1C0
7F00
7F00
ENDCHAR
STARTCHAR 0036
ENCODING 54
SWIDTH 720 0
DWIDTH 12 0
BBX 10 15 0 0
BITMAP
7F00
7F00
E1C0
E1C0
E1C0
E000
FF00
FF00
E1C0
E1C0
E1C0
E1C0
E1C0
7F00
7F00
ENDCHAR
STARTCHAR 0037
ENCODING 55
SWIDTH 720 0
DWIDTH 12 0
BBX 10 15 0 0
BITMAP
FFC0
FFC0
E1C0
01C0
01C0
0700
0700
0700
0E00
0E00
0E00
0E00
3800
3800
3800
ENDCHAR
STARTCHAR 0038
ENCODING 56
SWIDTH 720 0
DWIDTH 12 0
BBX 10 15 0 0
BITMAP
7F00
FFC0
E1C0
E1C0
E1C0
E1C0
7F00
7F00
E1C0
E1C0
E1C0
E1C0
E1C0
7F00
7F00
ENDCHAR
STARTCHAR 0039
ENCODING 57
SWIDTH 720 0
DWIDTH 12 0
BBX 10 15 0 0
BITMAP
7F00
FFC0
E1C0
E1C0
E1C0
E1C0
7FC0
7FC0
01C0
01C0
E1C0
E1C0
E1C0
7F00
7F00
ENDCHAR
STARTCHAR 003A
ENCODING 58
SWIDTH 300 0
DWIDTH 5 0
BBX 3 12 0 0
BITMAP
E0
E0
E0
00
00
00
00
00
00
E0
E0
E0
ENDCHAR
STARTCHAR 003B
ENCODING 59
SWIDTH 300 0
DWIDTH 5 0
BBX 3 14 0 -2
BITMAP
E0
E0
E0
00
00
00
00
E0
E0
E0
20
20
C0
C0
ENDCHAR
STARTCHAR 003C
ENCODING 60
SWIDTH 600 0
DWIDTH 10 0
BBX 8 12 0 2
BITMAP
07
07
0E
38
38
E0
E0
38
0E
0E
07
07
ENDCHAR
STARTCHAR 003D
ENCODING 61
SWIDTH 720 0
DWIDTH 12 0
BBX 10 5 0 5
BITMAP
FFC0
FFC0
0000
FFC0
FFC0
ENDCHAR
STARTCHAR 003E
ENCODING 62
SWIDTH 600 0
DWIDTH 10 0
BBX 8 12 0 2
BITMAP
E0
E0
38
0E
0E
07
07
0E
38
38
E0
E0
ENDCHAR
STARTCHAR 003F
ENCODING 63
SWIDTH 720 0
DWIDTH 12 0
BBX 10 15 0 0
BITMAP
3F00
FFC0
E1C0
01C0
01C0
01C0
1F00
1F00
3800
3800
3800
0000
0000
3800
3800
ENDCHAR
STARTCHAR 0040
ENCODING 64
SWIDTH 840 0
DWIDTH 14 0
BBX 12 15 0 0
BITMAP
3FC0
FFF0
E070
E070
E070
E070
E070
E070
E7C0
E7C0
E000
E070
E070
3FC0
3FC0
ENDCHAR
STARTCHAR 0041
ENCODING 65
SWIDTH 720 0
DWIDTH 12 0
BBX 10 15 0 0
BITMAP
0E00
0F00
7F00
E1C0
E1C0
E1C0
E1C0
E1C0
FFC0
FFC0
E1C0
E1C0
E1C0
E1C0
E1C0
ENDCHAR
STARTCHAR 0042
ENCODING 66
SWIDTH 720 0
DWIDTH 12 0
BBX 10 15 0 0
BITMAP
FF00
FFC0
E1C0
E1C0
E1C0
E1C0
FF00
FF00
E1C0
E1C0
E1C0
E1C0
E1C0
FF00
FF00
ENDCHAR
STARTCHAR 0043
ENCODING 67
SWIDTH 720 0
DWIDTH 12 0
BBX 10 15 0 0
BITMAP
7F00
7F00
E1C0
E1C0
E1C0
E000
E000
E000
E000
E000
E1C0
E1C0
E1C0
7F00
7F00
ENDCHAR
STARTCHAR 0044
ENCODING 68
SWIDTH 720 0
DWIDTH 12 0
BBX 10 15 0 0
BITMAP
FF00
FFC0
E1C0
E1C0
E1C0
E1C0
E1C0
E1C0
E1C0
E1C0
E1C0
E1C0
E1C0
FF00
FF00
ENDCHAR
STARTCHAR 0045
ENCODING 69
SWIDTH 720 0
DWIDTH 12 0
BBX 10 15 0 0
BITMAP
FFC0
FFC0
E000
E000
E000
E000
FF80
FF80
E000
E000
E000
E000
E000
FFC0
FFC0
ENDCHAR
STARTCHAR 0046
ENCODING 70
SWIDTH 720 0
DWIDTH 12 0
BBX 10 15 0 0
BITMAP
FFC0
FFC0
E000
E000
E000
E000
FF80
FF80
E000
E000
E000
E000
E000
E000
E000
ENDCHAR
STARTCHAR 0047
ENCODING 71
SWIDTH 720 0
DWIDTH 12 0
BBX 10 15 0 0
BITMAP
7F00
FFC0
E1C0
E1C0
E000
E000
E7C0
E7C0
E1C0
E1C0
E1C0
E1C0
E1C0
7F00
7F00
ENDCHAR
STARTCHAR 0048
ENCODING 72
SWIDTH 720 0
DWIDTH 12 0
BBX 10 15 0 0
BITMAP
E1C0
E1C0
E1C0
E1C0
E1C0
E1C0
FFC0
FFC0
E1C0
E1C0
E1C0
E1C0
E1C0
E1C0
E1C0
ENDCHAR
STARTCHAR 0049
ENCODING 73
SWIDTH 300 0
DWIDTH 5 0
BBX 3 15 0 0
BITMAP
E0
E0
E0
E0
E0
E0
E0
E0
E0
E0
E0
E0
E0
E0
E0
ENDCHAR
STARTCHAR 004A
ENCODING 74
SWIDTH 720 0
DWIDTH 12 0
BBX 10 15 0 0
BITMAP
01C0
01C0
01C0
01C0
01C0
01C0
01C0
01C0
01C0
01C0
E1C0
E1C0
E1C0
7F00
7F00
ENDCHAR
STARTCHAR 004B
ENCODING 75
SWIDTH 720 0
DWIDTH 12 0
BBX 10 15 0 0
BITMAP
E1C0
E1C0
E1C0
E1C0
E1C0
E1C0
FFC0
FF00
E1C0
E1C0
E1C0
E1C0
E1C0
E1C0
E1C0
ENDCHAR
STARTCHAR 004C
ENCODING 76
SWIDTH 720 0
DWIDTH 12 0
BBX 10 15 0 0
BITMAP
E000
E000
E000
E000
E000
E000
E000
E000
E000
E000
E000
E000
E000
FFC0
FFC0
ENDCHAR
STARTCHAR 004D
ENCODING 77
SWIDTH 840 0
DWIDTH 14 0
BBX 12 15 0 0
BITMAP
E070
E070
F9F0
FFF0
FFF0
E670
E070
E070
E070
E070
E070
E070
E070
E070
E070
ENDCHAR
STARTCHAR 004E
ENCODING 78
SWIDTH 720 0
DWIDTH 12 0
BBX 10 15 0 0
BITMAP
E1C0
E1C0
E1C0
F9C0
F9C0
FFC0
E7C0
E7C0
E1C0
E1C0
E1C0
E1C0
E1C0
E1C0
E1C0
ENDCHAR
STARTCHAR 004F
ENCODING 79
SWIDTH 720 0
DWIDTH 12 0
BBX 10 15 0 0
BITMAP
7F00
FFC0
E1C0
E1C0
E1C0
E1C0
E1C0
E1C0
E1C0
E1C0
E1C0
E1C0
E1C0
7F00
7F00
ENDCHAR
STARTCHAR 0050
ENCODING 80
SWIDTH 720 0
DWIDTH 12 0
BBX 10 15 0 0
BITMAP
FF00
FFC0
E1C0
E1C0
E1C0
E1C0
FF00
FF00
E000
E000
E000
E000
E000
E000
E000
ENDCHAR
STARTCHAR 0051
ENCODING 81
SWIDTH 720 0
DWIDTH 12 0
BBX 10 15 0 0
BITMAP
3F00
FFC0
E1C0
E1C0
E1C0
E1C0
E1C0
E1C0
E1C0
E1C0
E100
E600
E600
39C0
39C0
ENDCHAR
STARTCHAR 0052
ENCODING 82
SWIDTH 720 0
DWIDTH 12 0
BBX 10 15 0 0
BITMAP
FF00
FFC0
E1C0
E1C0
E1C0
E1C0
FF00
FF00
E1C0
E1C0
E1C0
E1C0
E1C0
E1C0
E1C0
ENDCHAR
STARTCHAR 0053
ENCODING 83
SWIDTH 720 0
DWIDTH 12 0
BBX 10 15 0 0
BITMAP
7F00
FFC0
E1C0
E000
E000
E000
7F00
7F00
01C0
01C0
01C0
E1C0
E1C0
7F00
7F00
ENDCHAR
STARTCHAR 0054
ENCODING 84
SWIDTH 720 0
DWIDTH 12 0
BBX 10 15 0 0
BITMAP
FFC0
FFC0
0E00
0E00
0E00
0E00
0E00
0E00
0E00
0E00
0E00
0E00
0E00
0E00
0E00
ENDCHAR
STARTCHAR 0055
ENCODING 85
SWIDTH 720 0
DWIDTH 12 0
BBX 10 15 0 0
BITMAP
E1C0
E1C0
E1C0
E1C0
E1C0
E1C0
E1C0
E1C0
E1C0
E1C0
E1C0
E1C0
E1C0
7F00
7F00
ENDCHAR
STARTCHAR 0056
ENCODING 86
SWIDTH 720 0
DWIDTH 12 0
BBX 10 15 0 0
BITMAP
E1C0
E1C0
E1C0
E1C0
E1C0
E1C0
E1C0
E1C0
E1C0
E1C0
E1C0
E1C0
3900
0E00
0E00
ENDCHAR
STARTCHAR 0057
ENCODING 87
SWIDTH 840 0
DWIDTH 14 0
BBX 12 15 0 0
BITMAP
E070
E070
E070
E070
E070
E070
E070
E070
E670
E670
FFF0
F9F0
F9F0
E070
E070
ENDCHAR
STARTCHAR 0058
ENCODING 88
SWIDTH 720 0
DWIDTH 12 0
BBX 10 15 0 0
BITMAP
E1C0
E1C0
E1C0
E1C0
E1C0
E1C0
FFC0
7F00
E1C0
E1C0
E1C0
E1C0
E1C0
E1C0
E1C0
ENDCHAR
STARTCHAR 0059
ENCODING 89
SWIDTH 720 0
DWIDTH 12 0
BBX 10 15 0 0
BITMAP
E1C0
E1C0
E1C0
E1C0
E1C0
E1C0
FFC0
7F00
0E00
0E00
0E00
0E00
0E00
0E00
0E00
ENDCHAR
STARTCHAR 005A
ENCODING 90
SWIDTH 720 0
DWIDTH 12 0
BBX 10 15 0 0
BITMAP
FFC0
FFC0
01C0
01C0
01C0
0700
0700
0E00
3800
3800
E000
E000
E000
FFC0
FFC0
ENDCHAR
STARTCHAR 005B
ENCODING 91
SWIDTH 420 0
DWIDTH 7 0
BBX 5 15 0 0
BITMAP
F8
F8
E0
E0
E0
E0
E0
E0
E0
E0
E0
E0
E0
F8
F8
ENDCHAR
STARTCHAR 005C
ENCODING 92
SWIDTH 720 0
DWIDTH 12 0
BBX 10 15 0 0
BITMAP
E000
F800
3800
3800
3800
0E00
0E00
0E00
0700
0700
0700
0700
01C0
01C0
01C0
ENDCHAR
STARTCHAR 005D
ENCODING 93
SWIDTH 420 0
DWIDTH 7 0
BBX 4 15 1 0
BITMAP
F0
F0
70
70
70
70
70
70
70
70
70
70
70
F0
F0
ENDCHAR
STARTCHAR 005E
ENCODING 94
SWIDTH 720 0
DWIDTH 12 0
BBX 10 7 0 9
BITMAP
0E00
0F00
7F00
6100
E1C0
E1C0
E1C0
ENDCHAR
STARTCHAR 005F
ENCODING 95
SWIDTH 720 0
DWIDTH 12 0
BBX 10 2 0 0
BITMAP
FFC0
FFC0
ENDCHAR
STARTCHAR 0060
ENCODING 96
SWIDTH 420 0
DWIDTH 7 0
BBX 5 4 0 12
BITMAP
E0
E0
38
38
ENDCHAR
STARTCHAR 0061
ENCODING 97
SWIDTH 720 0
DWIDTH 12 0
BBX 10 12 0 0
BITMAP
3F80
3F80
01C0
3FC0
3FC0
E1C0
E1C0
E1C0
E1C0
E1C0
3E40
3E40
ENDCHAR
STARTCHAR 0062
ENCODING 98
SWIDTH 720 0
DWIDTH 12 0
BBX 10 15 0 0
BITMAP
E000
E000
E000
FF00
FFC0
E1C0
E1C0
E1C0
E1C0
E1C0
E1C0
E1C0
E1C0
DF00
DF00
ENDCHAR
STARTCHAR 0063
ENCODING 99
SWIDTH 720 0
DWIDTH 12 0
BBX 10 12 0 0
BITMAP
7F00
7F00
E1C0
E1C0
E1C0
E000
E000
E1C0
E1C0
E1C0
7F00
7F00
ENDCHAR
STARTCHAR 0064
ENCODING 100
SWIDTH 720 0
DWIDTH 12 0
BBX 10 15 0 0
BITMAP
01C0
01C0
01C0
3FC0
FFC0
E1C0
E1C0
E1C0
E1C0
E1C0
E1C0
E1C0
E1C0
3EC0
3EC0
ENDCHAR
STARTCHAR 0065
ENCODING 101
SWIDTH 720 0
DWIDTH 12 0
BBX 10 12 0 0
BITMAP
7F00
FFC0
E1C0
E1C0
E1C0
FFC0
FFC0
E000
E1C0
E1C0
7F00
7F00
ENDCHAR
STARTCHAR 0066
ENCODING 102
SWIDTH 720 0
DWIDTH 12 0
BBX 10 14 0 0
BITMAP
7F00
7F00
E1C0
E1C0
E1C0
E000
E000
FE00
FE00
E000
E000
E000
E000
E000
ENDCHAR
STARTCHAR 0067
ENCODING 103
SWIDTH 720 0
DWIDTH 12 0
BBX 10 14 0 -2
BITMAP
3E40
3E40
E1C0
E1C0
E1C0
E1C0
E1C0
E1C0
E1C0
3FC0
3FC0
01C0
3F80
3F80
ENDCHAR
STARTCHAR 0068
ENCODING 104
SWIDTH 720 0
DWIDTH 12 0
BBX 10 15 0 0
BITMAP
E000
E000
E000
FF00
FF00
E1C0
E1C0
E1C0
E1C0
E1C0
E1C0
E1C0
E1C0
E1C0
E1C0
ENDCHAR
STARTCHAR 0069
ENCODING 105
SWIDTH 300 0
DWIDTH 5 0
BBX 3 15 0 0
BITMAP
E0
E0
00
E0
E0
E0
E0
E0
E0
E0
E0
E0
E0
E0
E0
ENDCHAR
STARTCHAR 006A
ENCODING 106
SWIDTH 420 0
DWIDTH 7 0
BBX 5 17 0 -2
BITMAP
38
38
00
38
38
38
38
38
38
38
38
38
38
38
38
E0
E0
ENDCHAR
STARTCHAR 006B
ENCODING 107
SWIDTH 720 0
DWIDTH 12 0
BBX 10 15 0 0
BITMAP
E000
E000
E000
E1C0
E1C0
E1C0
E1C0
E1C0
FF00
FF00
E1C0
E1C0
E1C0
E1C0
E1C0
ENDCHAR
STARTCHAR 006C
ENCODING 108
SWIDTH 300 0
DWIDTH 5 0
BBX 3 15 0 0
BITMAP
E0
E0
E0
E0
E0
E0
E0
E0
E0
E0
E0
E0
E0
E0
E0
ENDCHAR
STARTCHAR 006D
ENCODING 109
SWIDTH 840 0
DWIDTH 14 0
BBX 12 12 0 0
BITMAP
39C0
39C0
FFF0
E670
E670
E670
E670
E670
E670
E670
E670
E670
ENDCHAR
STARTCHAR 006E
ENCODING 110
SWIDTH 720 0
DWIDTH 12 0
BBX 10 12 0 0
BITMAP
FF00
FF00
E1C0
E1C0
E1C0
E1C0
E1C0
E1C0
E1C0
E1C0
E1C0
E1C0
ENDCHAR
STARTCHAR 006F
ENCODING 111
SWIDTH 720 0
DWIDTH 12 0
BBX 10 12 0 0
BITMAP
7F00
7F00
E1C0
E1C0
E1C0
E1C0
E1C0
E1C0
E1C0
E1C0
7F00
7F00
ENDCHAR
STARTCHAR 0070
ENCODING 112
SWIDTH 720 0
DWIDTH 12 0
BBX 10 14 0 -2
BITMAP
DF00
DF00
E1C0
E1C0
E1C0
E1C0
E1C0
E1C0
E1C0
FF00
FF00
E000
E000
E000
ENDCHAR
STARTCHAR 0071
ENCODING 113
SWIDTH 720 0
DWIDTH 12 0
BBX 10 14 0 -2
BITMAP
3EC0
3EC0
E1C0
E1C0
E1C0
E1C0
E1C0
E1C0
E1C0
3FC0
3FC0
01C0
01C0
01C0
ENDCHAR
STARTCHAR 0072
ENCODING 114
SWIDTH 720 0
DWIDTH 12 0
BBX 10 12 0 0
BITMAP
DF00
DF00
E1C0
E1C0
E1C0
E000
E000
E000
E000
E000
E000
E000
ENDCHAR
STARTCHAR 0073
ENCODING 115
SWIDTH 720 0
DWIDTH 12 0
BBX 10 12 0 0
BITMAP
7F00
7F00
E1C0
E1C0
E000
7F00
7F00
01C0
E1C0
E1C0
7F00
7F00
ENDCHAR
STARTCHAR 0074
ENCODING 116
SWIDTH 720 0
DWIDTH 12 0
BBX 10 14 0 0
BITMAP
3800
3800
3800
3800
FFC0
FFC0
3800
3800
3800
3800
3800
3800
1F00
1F00
ENDCHAR
STARTCHAR 0075
ENCODING 117
SWIDTH 720 0
DWIDTH 12 0
BBX 10 12 0 0
BITMAP
E1C0
E1C0
E1C0
E1C0
E1C0
E1C0
E1C0
E1C0
E1C0
E1C0
3EC0
3EC0
ENDCHAR
STARTCHAR 0076
ENCODING 118
SWIDTH 720 0
DWIDTH 12 0
BBX 10 12 0 0
BITMAP
E1C0
E1C0
E1C0
E1C0
E1C0
E1C0
E1C0
E1C0
E1C0
3900
0E00
0E00
ENDCHAR
STARTCHAR 0077
ENCODING 119
SWIDTH 840 0
DWIDTH 14 0
BBX 12 12 0 0
BITMAP
E070
E070
E070
E670
E670
E670
E670
E670
E670
FFF0
39C0
39C0
ENDCHAR
STARTCHAR 0078
ENCODING 120
SWIDTH 720 0
DWIDTH 12 0
BBX 10 12 0 0
BITMAP
E1C0
E1C0
E1C0
E1C0
E1C0
7F00
7F00
E1C0
E1C0
E1C0
E1C0
E1C0
ENDCHAR
STARTCHAR 0079
ENCODING 121
SWIDTH 720 0
DWIDTH 12 0
BBX 10 14 0 -2
BITMAP
E1C0
E1C0
E1C0
E1C0
E1C0
E1C0
E1C0
E1C0
E1C0
7FC0
7FC0
01C0
7F00
7F00
ENDCHAR
STARTCHAR 007A
ENCODING 122
SWIDTH 720 0
DWIDTH 12 0
BBX 10 12 0 0
BITMAP
FFC0
FFC0
01C0
01C0
0700
0E00
0E00
3800
E000
E000
FFC0
FFC0
ENDCHAR
STARTCHAR 007B
ENCODING 123
SWIDTH 540 0
DWIDTH 9 0
BBX 7 15 0 0
BITMAP
0E
0E
38
38
38
0E
F8
F8
0E
0E
38
38
38
0E
0E
ENDCHAR
STARTCHAR 007C
ENCODING 124
SWIDTH 300 0
DWIDTH 5 0
BBX 3 15 0 0
BITMAP
E0
E0
E0
E0
E0
E0
E0
E0
E0
E0
E0
E0
E0
E0
E0
ENDCHAR
STARTCHAR 007D
ENCODING 125
SWIDTH 480 0
DWIDTH 8 0
BBX 7 15 0 0
BITMAP
E0
E0
38
38
38
E0
3E
3E
E0
E0
38
38
38
E0
E0
ENDCHAR
STARTCHAR 007E
ENCODING 126
SWIDTH 720 0
DWIDTH 12 0
BBX 10 5 0 5
BITMAP
39C0
39C0
FFC0
E700
E700
ENDCHAR
STARTCHAR 00A0
ENCODING 160
SWIDTH 300 0
DWIDTH 5 0
BBX 0 0 0 0
BITMAP
ENDCHAR
STARTCHAR 00A1
ENCODING 161
SWIDTH 300 0
DWIDTH 5 0
BBX 3 16 0 -2
BITMAP
E0
E0
00
00
E0
E0
E0
E0
E0
E0
E0
E0
E0
E0
E0
E0
ENDCHAR
STARTCHAR 00A2
ENCODING 162
SWIDTH 720 0
DWIDTH 12 0
BBX 10 15 0 0
BITMAP
0E00
7F00
7F00
E1C0
E1C0
E1C0
E000
E000
E1C0
E1C0
E1C0
6100
7F00
0E00
0E00
ENDCHAR
STARTCHAR 00A3
ENCODING 163
SWIDTH 720 0
DWIDTH 12 0
BBX 10 15 0 0
BITMAP
1F00
1F00
39C0
39C0
39C0
3800
FF00
FF00
3800
3800
3800
3800
39C0
3FC0
3FC0
ENDCHAR
STARTCHAR 00A4
ENCODING 164
SWIDTH 660 0
DWIDTH 11 0
BBX 9 10 0 2
BITMAP
E380
FF80
FF80
6300
6300
6300
6300
FF80
FF80
E380
ENDCHAR
STARTCHAR 00A5
ENCODING 165
SWIDTH 720 0
DWIDTH 12 0
BBX 10 15 0 0
BITMAP
E1C0
E1C0
E1C0
E1C0
E1C0
7F00
7E00
0E00
FFC0
FFC0
0E00
FFC0
FFC0
0E00
0E00
ENDCHAR
STARTCHAR 00A6
ENCODING 166
SWIDTH 300 0
DWIDTH 5 0
BBX 3 15 0 0
BITMAP
E0
E0
E0
E0
E0
E0
E0
00
E0
E0
E0
E0
E0
E0
E0
ENDCHAR
STARTCHAR 00A7
ENCODING 167
SWIDTH 660 0
DWIDTH 11 0
BBX 9 15 0 0
BITMAP
7F00
FF80
E380
E000
E000
FF00
FF00
6300
7F80
7F80
0380
E380
E380
7F00
7F00
ENDCHAR
STARTCHAR 00A8
ENCODING 168
SWIDTH 720 0
DWIDTH 12 0
BBX 10 2 0 14
BITMAP
E1C0
E1C0
ENDCHAR
STARTCHAR 00A9
ENCODING 169
SWIDTH 840 0
DWIDTH 14 0
BBX 12 16 0 0
BITMAP
3FC0
3FC0
E0F0
E0F0
DF30
DF30
DB30
D830
D830
DB30
DB30
DF30
DF30
E0F0
3FC0
3FC0
ENDCHAR
STARTCHAR 00AA
ENCODING 170
SWIDTH 720 0
DWIDTH 12 0
BBX 10 12 0 3
BITMAP
3F80
3F80
01C0
3FC0
3FC0
E1C0
E1C0
E1C0
E1C0
E1C0
3E40
3E40
ENDCHAR
STARTCHAR 00AB
ENCODING 171
SWIDTH 780 0
DWIDTH 13 0
BBX 11 9 0 3
BITMAP
0EE0
0EE0
39C0
E700
E700
39C0
39C0
0EE0
0EE0
ENDCHAR
STARTCHAR 00AC
ENCODING 172
SWIDTH 720 0
DWIDTH 12 0
BBX 9 5 1 4
BITMAP
FF80
FF80
0380
0380
0380
ENDCHAR
STARTCHAR 00AD
ENCODING 173
SWIDTH 720 0
DWIDTH 12 0
BBX 10 2 0 7
BITMAP
FFC0
FFC0
ENDCHAR
STARTCHAR 00AE
ENCODING 174
SWIDTH 840 0
DWIDTH 14 0
BBX 12 16 0 0
BITMAP
3FC0
3FC0
E0F0
E0F0
DF30
DF30
D930
DE30
DE30
D930
D930
D930
E0F0
E0F0
3FC0
3FC0
ENDCHAR
STARTCHAR 00AF
ENCODING 175
SWIDTH 720 0
DWIDTH 12 0
BBX 10 2 0 14
BITMAP
FFC0
FFC0
ENDCHAR
STARTCHAR 00B0
ENCODING 176
SWIDTH 600 0
DWIDTH 10 0
BBX 8 9 0 7
BITMAP
3E
3E
E7
E7
E7
E7
E7
3E
3E
ENDCHAR
STARTCHAR 00B1
ENCODING 177
SWIDTH 720 0
DWIDTH 12 0
BBX 10 12 0 0
BITMAP
0E00
0E00
0E00
FFC0
FFC0
0E00
0E00
0E00
0E00
0000
FFC0
FFC0
ENDCHAR
STARTCHAR 00B2
ENCODING 178
SWIDTH 720 0
DWIDTH 12 0
BBX 10 12 0 3
BITMAP
3F80
3F80
E1C0
E1C0
01C0
3F80
3F80
E000
E000
E000
FFC0
FFC0
ENDCHAR
STARTCHAR 00B3
ENCODING 179
SWIDTH 720 0
DWIDTH 12 0
BBX 10 12 0 3
BITMAP
3F80
3F80
E1C0
E1C0
01C0
3F80
3F80
01C0
E1C0
E1C0
3F80
3F80
ENDCHAR
STARTCHAR 00B4
ENCODING 180
SWIDTH 420 0
DWIDTH 7 0
BBX 5 4 0 12
BITMAP
38
38
E0
E0
ENDCHAR
STARTCHAR 00B5
ENCODING 181
SWIDTH 720 0
DWIDTH 12 0
BBX 10 14 0 -2
BITMAP
E1C0
E1C0
E1C0
E1C0
E1C0
E1C0
E1C0
E1C0
E1C0
E1C0
FEC0
FEC0
E000
E000
ENDCHAR
STARTCHAR 00B6
ENCODING 182
SWIDTH 720 0
DWIDTH 12 0
BBX 9 15 1 0
BITMAP
7F80
FF80
F300
F300
F300
F300
7300
7300
3300
3300
3300
3300
3300
3300
3300
ENDCHAR
STARTCHAR 00B7
ENCODING 183
SWIDTH 300 0
DWIDTH 5 0
BBX 3 3 0 7
BITMAP
E0
E0
E0
ENDCHAR
STARTCHAR 00B8
ENCODING 184
SWIDTH 420 0
DWIDTH 7 0
BBX 5 4 0 -2
BITMAP
38
38
E0
E0
ENDCHAR
STARTCHAR 00B9
ENCODING 185
SWIDTH 720 0
DWIDTH 12 0
BBX 10 12 0 3
BITMAP
0E00
0E00
3E00
FE00
FE00
0E00
0E00
0E00
0E00
0E00
FFC0
FFC0
ENDCHAR
STARTCHAR 00BA
ENCODING 186
SWIDTH 720 0
DWIDTH 12 0
BBX 10 12 0 3
BITMAP
3F80
3F80
E1C0
E1C0
E1C0
E1C0
E1C0
E1C0
E1C0
E1C0
3F80
3F80
ENDCHAR
STARTCHAR 00BB
ENCODING 187
SWIDTH 780 0
DWIDTH 13 0
BBX 11 9 0 3
BITMAP
E700
E700
39C0
0EE0
0EE0
39C0
39C0
E700
E700
ENDCHAR
STARTCHAR 00BC
ENCODING 188
SWIDTH 840 0
DWIDTH 14 0
BBX 12 16 0 0
BITMAP
E000
E000
6000
6000
6000
6000
6000
FB30
FB30
0330
0330
03F0
03F0
0030
0030
0030
ENDCHAR
STARTCHAR 00BD
ENCODING 189
SWIDTH 840 0
DWIDTH 14 0
BBX 12 16 0 0
BITMAP
E000
E000
6000
6000
6000
6000
6000
FBF0
FBF0
0030
0030
03F0
03F0
0300
03F0
03F0
ENDCHAR
STARTCHAR 00BE
ENCODING 190
SWIDTH 840 0
DWIDTH 14 0
BBX 11 16 1 0
BITMAP
F800
F800
1800
1800
F800
F800
1800
FB60
FB60
0360
0360
03E0
03E0
0060
0060
0060
ENDCHAR
STARTCHAR 00BF
ENCODING 191
SWIDTH 720 0
DWIDTH 12 0
BBX 10 16 0 -2
BITMAP
0700
0700
0000
0000
0700
0700
0700
3E00
3E00
E000
E000
E000
E1C0
E1C0
3F00
3F00
ENDCHAR
STARTCHAR 00C0
ENCODING 192
SWIDTH 720 0
DWIDTH 12 0
BBX 10 15 0 0
BITMAP
3800
3E00
0E00
0000
0000
3F80
E1C0
E1C0
E1C0
E1C0
FFC0
FFC0
E1C0
E1C0
E1C0
ENDCHAR
STARTCHAR 00C1
ENCODING 193
SWIDTH 720 0
DWIDTH 12 0
BBX 10 15 0 0
BITMAP
0700
0F00
0E00
0000
0000
7F00
E1C0
E1C0
E1C0
E1C0
FFC0
FFC0
E1C0
E1C0
E1C0
ENDCHAR
STARTCHAR 00C2
ENCODING 194
SWIDTH 720 0
DWIDTH 12 0
BBX 10 15 0 0
BITMAP
0E00
3F00
3900
0000
0000
3F00
E1C0
E1C0
E1C0
E1C0
FFC0
FFC0
E1C0
E1C0
E1C0
ENDCHAR
STARTCHAR 00C3
ENCODING 195
SWIDTH 720 0
DWIDTH 12 0
BBX 10 15 0 0
BITMAP
3EC0
FFC0
E700
0000
0000
3F00
E1C0
E1C0
E1C0
E1C0
FFC0
FFC0
E1C0
E1C0
E1C0
ENDCHAR
STARTCHAR 00C4
ENCODING 196
SWIDTH 720 0
DWIDTH 12 0
BBX 10 15 0 0
BITMAP
E1C0
E1C0
0000
0E00
0F00
7F00
E1C0
E1C0
E1C0
E1C0
FFC0
FFC0
E1C0
E1C0
E1C0
ENDCHAR
STARTCHAR 00C5
ENCODING 197
SWIDTH 720 0
DWIDTH 12 0
BBX 10 15 0 0
BITMAP
0E00
6F00
6100
0E00
0F00
7F00
E1C0
E1C0
E1C0
E1C0
FFC0
FFC0
E1C0
E1C0
E1C0
ENDCHAR
STARTCHAR 00C6
ENCODING 198
SWIDTH 840 0
DWIDTH 14 0
BBX 12 15 0 0
BITMAP
0FF0
0FF0
3F00
E700
E700
E700
FFF0
FFF0
E700
E700
E700
E700
E700
E7F0
E7F0
ENDCHAR
STARTCHAR 00C7
ENCODING 199
SWIDTH 720 0
DWIDTH 12 0
BBX 10 17 0 -2
BITMAP
3F80
3F80
E1C0
E1C0
E1C0
E000
E000
E000
E000
E1C0
E1C0
E1C0
3F80
3E00
0E00
3800
3800
ENDCHAR
STARTCHAR 00C8
ENCODING 200
SWIDTH 720 0
DWIDTH 12 0
BBX 10 15 0 0
BITMAP
3800
3E00
0E00
0000
0000
FFC0
FFC0
E000
FF80
FF80
E000
E000
E000
FFC0
FFC0
ENDCHAR
STARTCHAR 00C9
ENCODING 201
SWIDTH 720 0
DWIDTH 12 0
BBX 10 15 0 0
BITMAP
0700
0F00
0E00
0000
0000
FFC0
FFC0
E000
FF00
FF00
E000
E000
E000
FFC0
FFC0
ENDCHAR
STARTCHAR 00CA
ENCODING 202
SWIDTH 720 0
DWIDTH 12 0
BBX 10 15 0 0
BITMAP
0E00
3F00
3900
0000
0000
FFC0
FFC0
E000
FF00
FF00
E000
E000
E000
FFC0
FFC0
ENDCHAR
STARTCHAR 00CB
ENCODING 203
SWIDTH 720 0
DWIDTH 12 0
BBX 10 15 0 0
BITMAP
E1C0
E1C0
0000
FFC0
FFC0
E000
E000
E000
FF00
FF00
E000
E000
E000
FFC0
FFC0
ENDCHAR
STARTCHAR 00CC
ENCODING 204
SWIDTH 420 0
DWIDTH 7 0
BBX 5 15 0 0
BITMAP
E0
F8
38
00
00
38
38
38
38
38
38
38
38
38
38
ENDCHAR
STARTCHAR 00CD
ENCODING 205
SWIDTH 420 0
DWIDTH 7 0
BBX 5 15 0 0
BITMAP
38
F8
E0
00
00
E0
E0
E0
E0
E0
E0
E0
E0
E0
E0
ENDCHAR
STARTCHAR 00CE
ENCODING 206
SWIDTH 540 0
DWIDTH 9 0
BBX 7 15 0 0
BITMAP
38
FE
E6
00
00
38
38
38
38
38
38
38
38
38
38
ENDCHAR
STARTCHAR 00CF
ENCODING 207
SWIDTH 600 0
DWIDTH 10 0
BBX 10 15 0 0
BITMAP
E1C0
E1C0
0000
0E00
0E00
0E00
0E00
0E00
0E00
0E00
0E00
0E00
0E00
0E00
0E00
ENDCHAR
STARTCHAR 00D0
ENCODING 208
SWIDTH 840 0
DWIDTH 14 0
BBX 12 15 0 0
BITMAP
3FC0
3FF0
3870
3870
3870
3870
FE70
FE70
3870
3870
3870
3870
3870
3FC0
3FC0
ENDCHAR
STARTCHAR 00D1
ENCODING 209
SWIDTH 720 0
DWIDTH 12 0
BBX 10 15 0 0
BITMAP
3EC0
FFC0
E700
0000
0000
E1C0
E1C0
F9C0
FFC0
FFC0
E7C0
E1C0
E1C0
E1C0
E1C0
ENDCHAR
STARTCHAR 00D2
ENCODING 210
SWIDTH 720 0
DWIDTH 12 0
BBX 10 15 0 0
BITMAP
3800
3E00
0E00
0000
0000
3F80
E1C0
E1C0
E1C0
E1C0
E1C0
E1C0
E1C0
3F80
3F80
ENDCHAR
STARTCHAR 00D3
ENCODING 211
SWIDTH 720 0
DWIDTH 12 0
BBX 10 15 0 0
BITMAP
0700
0F00
0E00
0000
0000
7F00
E1C0
E1C0
E1C0
E1C0
E1C0
E1C0
E1C0
7F00
7F00
ENDCHAR
STARTCHAR 00D4
ENCODING 212
SWIDTH 720 0
DWIDTH 12 0
BBX 10 15 0 0
BITMAP
0E00
3F00
3900
0000
0000
3F00
E1C0
E1C0
E1C0
E1C0
E1C0
E1C0
E1C0
3F00
3F00
ENDCHAR
STARTCHAR 00D5
ENCODING 213
SWIDTH 720 0
DWIDTH 12 0
BBX 10 15 0 0
BITMAP
3EC0
FFC0
E700
0000
0000
3F00
E1C0
E1C0
E1C0
E1C0
E1C0
E1C0
E1C0
3F00
3F00
ENDCHAR
STARTCHAR 00D6
ENCODING 214
SWIDTH 720 0
DWIDTH 12 0
BBX 10 15 0 0
BITMAP
E1C0
E1C0
0000
7F00
7F00
E1C0
E1C0
E1C0
E1C0
E1C0
E1C0
E1C0
E1C0
7F00
7F00
ENDCHAR
STARTCHAR 00D7
ENCODING 215
SWIDTH 720 0
DWIDTH 12 0
BBX 10 9 0 3
BITMAP
E1C0
E1C0
7F00
7F00
0E00
7F00
7F00
E1C0
E1C0
ENDCHAR
STARTCHAR 00D8
ENCODING 216
SWIDTH 720 0
DWIDTH 12 0
BBX 10 15 0 0
BITMAP
3EC0
FFC0
E100
E1C0
E1C0
E7C0
E7C0
FFC0
F9C0
F9C0
E1C0
21C0
21C0
DF00
DF00
ENDCHAR
STARTCHAR 00D9
ENCODING 217
SWIDTH 720 0
DWIDTH 12 0
BBX 10 15 0 0
BITMAP
3800
3E00
0E00
0000
0000
E1C0
E1C0
E1C0
E1C0
E1C0
E1C0
E1C0
E1C0
3F80
3F80
ENDCHAR
STARTCHAR 00DA
ENCODING 218
SWIDTH 720 0
DWIDTH 12 0
BBX 10 15 0 0
BITMAP
0700
0F00
0E00
0000
0000
E1C0
E1C0
E1C0
E1C0
E1C0
E1C0
E1C0
E1C0
7F00
7F00
ENDCHAR
STARTCHAR 00DB
ENCODING 219
SWIDTH 720 0
DWIDTH 12 0
BBX 10 15 0 0
BITMAP
0E00
3F00
3900
0000
0000
E1C0
E1C0
E1C0
E1C0
E1C0
E1C0
E1C0
E1C0
3F00
3F00
ENDCHAR
STARTCHAR 00DC
ENCODING 220
SWIDTH 720 0
DWIDTH 12 0
BBX 10 15 0 0
BITMAP
E1C0
E1C0
0000
E1C0
E1C0
E1C0
E1C0
E1C0
E1C0
E1C0
E1C0
E1C0
E1C0
7F00
7F00
ENDCHAR
STARTCHAR 00DD
ENCODING 221
SWIDTH 720 0
DWIDTH 12 0
BBX 10 15 0 0
BITMAP
0700
0F00
0E00
0000
0000
E1C0
E1C0
E1C0
E1C0
E1C0
7F00
7F00
0E00
0E00
0E00
ENDCHAR
STARTCHAR 00DE
ENCODING 222
SWIDTH 720 0
DWIDTH 12 0
BBX 10 15 0 0
BITMAP
E000
FF00
FF00
E1C0
E1C0
E1C0
E1C0
E1C0
E1C0
E1C0
E1C0
FFC0
FF00
E000
E000
ENDCHAR
STARTCHAR 00DF
ENCODING 223
SWIDTH 720 0
DWIDTH 12 0
BBX 10 15 0 0
BITMAP
7F00
FFC0
E1C0
E1C0
E1C0
E1C0
E700
E700
E1C0
E1C0
E1C0
E1C0
E1C0
E700
E700
ENDCHAR
STARTCHAR 00E0
ENCODING 224
SWIDTH 720 0
DWIDTH 12 0
BBX 10 15 0 0
BITMAP
3800
3E00
0E00
0000
0000
3F80
01C0
01C0
3FC0
3FC0
E1C0
E1C0
E1C0
3E40
3E40
ENDCHAR
STARTCHAR 00E1
ENCODING 225
SWIDTH 720 0
DWIDTH 12 0
BBX 10 15 0 0
BITMAP
0700
0F00
0E00
0000
0000
3F00
01C0
01C0
3FC0
3FC0
E1C0
E1C0
E1C0
3EC0
3EC0
ENDCHAR
STARTCHAR 00E2
ENCODING 226
SWIDTH 720 0
DWIDTH 12 0
BBX 10 15 0 0
BITMAP
0E00
3F00
3900
0000
0000
3F00
01C0
01C0
3FC0
3FC0
E1C0
E1C0
E1C0
3EC0
3EC0
ENDCHAR
STARTCHAR 00E3
ENCODING 227
SWIDTH 720 0
DWIDTH 12 0
BBX 10 15 0 0
BITMAP
3EC0
FFC0
E700
0000
0000
3F00
01C0
01C0
3FC0
3FC0
E1C0
E1C0
E1C0
3EC0
3EC0
ENDCHAR
STARTCHAR 00E4
ENCODING 228
SWIDTH 720 0
DWIDTH 12 0
BBX 10 15 0 0
BITMAP
E1C0
E1C0
0000
3F80
3F80
01C0
3FC0
3FC0
E1C0
E1C0
E1C0
E1C0
E1C0
3E40
3E40
ENDCHAR
STARTCHAR 00E5
ENCODING 229
SWIDTH 720 0
DWIDTH 12 0
BBX 10 15 0 0
BITMAP
0E00
6F00
6100
7F00
7F00
01C0
7FC0
7FC0
E1C0
E1C0
E1C0
E1C0
E1C0
7EC0
7EC0
ENDCHAR
STARTCHAR 00E6
ENCODING 230
SWIDTH 840 0
DWIDTH 14 0
BBX 12 12 0 0
BITMAP
3FC0
3FC0
0670
3E70
3E70
E7F0
E7F0
E700
E730
E730
39C0
39C0
ENDCHAR
STARTCHAR 00E7
ENCODING 231
SWIDTH 720 0
DWIDTH 12 0
BBX 10 16 0 -2
BITMAP
3F80
3F80
E1C0
E1C0
E1C0
E000
E000
E000
E1C0
E1C0
E1C0
3F80
3E00
0E00
3800
3800
ENDCHAR
STARTCHAR 00E8
ENCODING 232
SWIDTH 720 0
DWIDTH 12 0
BBX 10 15 0 0
BITMAP
3800
3E00
0E00
0000
0000
3F80
E1C0
E1C0
FFC0
FFC0
E000
E1C0
E1C0
3F80
3F80
ENDCHAR
STARTCHAR 00E9
ENCODING 233
SWIDTH 720 0
DWIDTH 12 0
BBX 10 15 0 0
BITMAP
0700
0F00
0E00
0000
0000
7F00
E1C0
E1C0
FFC0
FFC0
E000
E1C0
E1C0
7F00
7F00
ENDCHAR
STARTCHAR 00EA
ENCODING 234
SWIDTH 720 0
DWIDTH 12 0
BBX 10 15 0 0
BITMAP
0E00
3F00
3900
0000
0000
3F00
E1C0
E1C0
FFC0
FFC0
E000
E1C0
E1C0
3F00
3F00
ENDCHAR
STARTCHAR 00EB
ENCODING 235
SWIDTH 720 0
DWIDTH 12 0
BBX 10 15 0 0
BITMAP
E1C0
E1C0
0000
7F00
FFC0
E1C0
E1C0
E1C0
FFC0
FFC0
E000
E1C0
E1C0
7F00
7F00
ENDCHAR
STARTCHAR 00EC
ENCODING 236
SWIDTH 420 0
DWIDTH 7 0
BBX 5 15 0 0
BITMAP
E0
F8
38
00
00
38
38
38
38
38
38
38
38
38
38
ENDCHAR
STARTCHAR 00ED
ENCODING 237
SWIDTH 420 0
DWIDTH 7 0
BBX 5 15 0 0
BITMAP
38
F8
E0
00
00
E0
E0
E0
E0
E0
E0
E0
E0
E0
E0
ENDCHAR
STARTCHAR 00EE
ENCODING 238
SWIDTH 540 0
DWIDTH 9 0
BBX 7 15 0 0
BITMAP
38
FE
E6
00
00
38
38
38
38
38
38
38
38
38
38
ENDCHAR
STARTCHAR 00EF
ENCODING 239
SWIDTH 720 0
DWIDTH 12 0
BBX 10 15 0 0
BITMAP
E1C0
E1C0
0000
0E00
0E00
0E00
0E00
0E00
0E00
0E00
0E00
0E00
0E00
0E00
0E00
ENDCHAR
STARTCHAR 00F0
ENCODING 240
SWIDTH 720 0
DWIDTH 12 0
BBX 10 15 0 0
BITMAP
7100
7F00
0E00
6700
6700
0FC0
71C0
71C0
E1C0
E1C0
E1C0
E1C0
E1C0
7F00
7F00
ENDCHAR
STARTCHAR 00F1
ENCODING 241
SWIDTH 720 0
DWIDTH 12 0
BBX 10 15 0 0
BITMAP
3EC0
FFC0
E700
0000
0000
FF00
E1C0
E1C0
E1C0
E1C0
E1C0
E1C0
E1C0
E1C0
E1C0
ENDCHAR
STARTCHAR 00F2
ENCODING 242
SWIDTH 720 0
DWIDTH 12 0
BBX 10 15 0 0
BITMAP
3800
3E00
0E00
0000
0000
3F80
E1C0
E1C0
E1C0
E1C0
E1C0
E1C0
E1C0
3F80
3F80
ENDCHAR
STARTCHAR 00F3
ENCODING 243
SWIDTH 720 0
DWIDTH 12 0
BBX 10 15 0 0
BITMAP
0700
0F00
0E00
0000
0000
7F00
E1C0
E1C0
E1C0
E1C0
E1C0
E1C0
E1C0
7F00
7F00
ENDCHAR
STARTCHAR 00F4
ENCODING 244
SWIDTH 720 0
DWIDTH 12 0
BBX 10 15 0 0
BITMAP
0E00
3F00
3900
0000
0000
3F00
E1C0
E1C0
E1C0
E1C0
E1C0
E1C0
E1C0
3F00
3F00
ENDCHAR
STARTCHAR 00F5
ENCODING 245
SWIDTH 720 0
DWIDTH 12 0
BBX 10 15 0 0
BITMAP
3EC0
FFC0
E700
0000
0000
3F00
E1C0
E1C0
E1C0
E1C0
E1C0
E1C0
E1C0
3F00
3F00
ENDCHAR
STARTCHAR 00F6
ENCODING 246
SWIDTH 720 0
DWIDTH 12 0
BBX 10 15 0 0
BITMAP
E1C0
E1C0
0000
7F00
7F00
E1C0
E1C0
E1C0
E1C0
E1C0
E1C0
E1C0
E1C0
7F00
7F00
ENDCHAR
STARTCHAR 00F7
ENCODING 247
SWIDTH 720 0
DWIDTH 12 0
BBX 10 12 0 2
BITMAP
0E00
0E00
0E00
0000
0000
FFC0
FFC0
0000
0000
0E00
0E00
0E00
ENDCHAR
STARTCHAR 00F8
ENCODING 248
SWIDTH 720 0
DWIDTH 12 0
BBX 10 12 0 0
BITMAP
3EC0
FFC0
E100
E7C0
E7C0
FFC0
F9C0
F9C0
21C0
21C0
DF00
DF00
ENDCHAR
STARTCHAR 00F9
ENCODING 249
SWIDTH 720 0
DWIDTH 12 0
BBX 10 15 0 0
BITMAP
3800
3E00
0E00
0000
0000
E1C0
E1C0
E1C0
E1C0
E1C0
E1C0
E1C0
E1C0
3EC0
3EC0
ENDCHAR
STARTCHAR 00FA
ENCODING 250
SWIDTH 720 0
DWIDTH 12 0
BBX 10 15 0 0
BITMAP
0700
0F00
0E00
0000
0000
E1C0
E1C0
E1C0
E1C0
E1C0
E1C0
E1C0
E1C0
3EC0
3EC0
ENDCHAR
STARTCHAR 00FB
ENCODING 251
SWIDTH 720 0
DWIDTH 12 0
BBX 10 15 0 0
BITMAP
0E00
3F00
3900
0000
0000
E1C0
E1C0
E1C0
E1C0
E1C0
E1C0
E1C0
E1C0
3EC0
3EC0
ENDCHAR
STARTCHAR 00FC
ENCODING 252
SWIDTH 720 0
DWIDTH 12 0
BBX 10 15 0 0
BITMAP
E1C0
E1C0
0000
E1C0
E1C0
E1C0
E1C0
E1C0
E1C0
E1C0
E1C0
E1C0
E1C0
3EC0
3EC0
ENDCHAR
STARTCHAR 00FD
ENCODING 253
SWIDTH 720 0
DWIDTH 12 0
BBX 10 17 0 -2
BITMAP
0700
0F00
0E00
0000
0000
E1C0
E1C0
E1C0
E1C0
E1C0
E1C0
E1C0
7FC0
7FC0
01C0
7F00
7F00
ENDCHAR
STARTCHAR 00FE
ENCODING 254
SWIDTH 720 0
DWIDTH 12 0
BBX 10 15 0 -2
BITMAP
E000
E700
E700
F9C0
F9C0
E1C0
E1C0
E1C0
E1C0
E1C0
F9C0
E700
E700
E000
E000
ENDCHAR
STARTCHAR 00FF
ENCODING 255
SWIDTH 720 0
DWIDTH 12 0
BBX 10 17 0 -2
BITMAP
E1C0
E1C0
0000
E1C0
E1C0
E1C0
E1C0
E1C0
E1C0
E1C0
E1C0
E1C0
7FC0
7FC0
01C0
7F00
7F00
ENDCHAR
STARTCHAR 0100
ENCODING 256
SWIDTH 720 0
DWIDTH 12 0
BBX 10 15 0 0
BITMAP
FFC0
FFC0
0000
0E00
0F00
7F00
E1C0
E1C0
E1C0
E1C0
FFC0
FFC0
E1C0
E1C0
E1C0
ENDCHAR
STARTCHAR 0101
ENCODING 257
SWIDTH 720 0
DWIDTH 12 0
BBX 10 15 0 0
BITMAP
FFC0
FFC0
0000
3F80
3F80
01C0
3FC0
3FC0
E1C0
E1C0
E1C0
E1C0
E1C0
3E40
3E40
ENDCHAR
STARTCHAR 0102
ENCODING 258
SWIDTH 720 0
DWIDTH 12 0
BBX 10 15 0 0
BITMAP
6100
6F00
0E00
0000
0000
7F00
E1C0
E1C0
E1C0
E1C0
FFC0
FFC0
E1C0
E1C0
E1C0
ENDCHAR
STARTCHAR 0103
ENCODING 259
SWIDTH 720 0
DWIDTH 12 0
BBX 10 15 0 0
BITMAP
6100
6F00
0E00
0000
0000
7F00
01C0
01C0
7FC0
7FC0
E1C0
E1C0
E1C0
7EC0
7EC0
ENDCHAR
STARTCHAR 0104
ENCODING 260
SWIDTH 720 0
DWIDTH 12 0
BBX 10 17 0 -2
BITMAP
0E00
0F00
7F00
E1C0
E1C0
E1C0
E1C0
FFC0
FFC0
E1C0
E1C0
E1C0
E1C0
0700
0700
01C0
01C0
ENDCHAR
STARTCHAR 0105
ENCODING 261
SWIDTH 720 0
DWIDTH 12 0
BBX 10 16 0 -2
BITMAP
3F00
3F00
01C0
01C0
3FC0
3FC0
E1C0
E1C0
E1C0
E1C0
3EC0
3EC0
0700
0700
01C0
01C0
ENDCHAR
STARTCHAR 0106
ENCODING 262
SWIDTH 720 0
DWIDTH 12 0
BBX 10 15 0 0
BITMAP
0700
0F00
0E00
0000
0000
7F00
E1C0
E1C0
E000
E000
E000
E1C0
E1C0
7F00
7F00
ENDCHAR
STARTCHAR 0107
ENCODING 263
SWIDTH 720 0
DWIDTH 12 0
BBX 10 15 0 0
BITMAP
0700
0F00
0E00
0000
0000
7F00
E1C0
E1C0
E000
E000
E000
E1C0
E1C0
7F00
7F00
ENDCHAR
STARTCHAR 0108
ENCODING 264
SWIDTH 720 0
DWIDTH 12 0
BBX 10 15 0 0
BITMAP
0E00
3F00
3900
0000
0000
3F00
E1C0
E1C0
E000
E000
E000
E1C0
E1C0
3F00
3F00
ENDCHAR
STARTCHAR 0109
ENCODING 265
SWIDTH 720 0
DWIDTH 12 0
BBX 10 15 0 0
BITMAP
0E00
3F00
3900
0000
0000
3F00
E1C0
E1C0
E000
E000
E000
E1C0
E1C0
3F00
3F00
ENDCHAR
STARTCHAR 010A
ENCODING 266
SWIDTH 720 0
DWIDTH 12 0
BBX 10 15 0 0
BITMAP
0E00
0E00
0000
7F00
7F00
E1C0
E1C0
E1C0
E000
E000
E1C0
E1C0
E1C0
7F00
7F00
ENDCHAR
STARTCHAR 010B
ENCODING 267
SWIDTH 720 0
DWIDTH 12 0
BBX 10 15 0 0
BITMAP
0E00
0E00
0000
7F00
7F00
E1C0
E1C0
E1C0
E000
E000
E1C0
E1C0
E1C0
7F00
7F00
ENDCHAR
STARTCHAR 010C
ENCODING 268
SWIDTH 720 0
DWIDTH 12 0
BBX 10 15 0 0
BITMAP
3900
3F00
0E00
0000
0000
3F00
E1C0
E1C0
E000
E000
E000
E1C0
E1C0
3F00
3F00
ENDCHAR
STARTCHAR 010D
ENCODING 269
SWIDTH 720 0
DWIDTH 12 0
BBX 10 15 0 0
BITMAP
3900
3F00
0E00
0000
0000
3F00
E1C0
E1C0
E000
E000
E000
E1C0
E1C0
3F00
3F00
ENDCHAR
STARTCHAR 010E
ENCODING 270
SWIDTH 720 0
DWIDTH 12 0
BBX 10 15 0 0
BITMAP
3900
3F00
0E00
0000
0000
FF00
E1C0
E1C0
E1C0
E1C0
E1C0
E1C0
E1C0
FF00
FF00
ENDCHAR
STARTCHAR 010F
ENCODING 271
SWIDTH 840 0
DWIDTH 14 0
BBX 12 15 0 0
BITMAP
0730
0730
0730
3F30
3F30
E700
E700
E700
E700
E700
E700
E700
E700
3B00
3B00
ENDCHAR
STARTCHAR 0110
ENCODING 272
SWIDTH 840 0
DWIDTH 14 0
BBX 12 15 0 0
BITMAP
3FC0
3FF0
3870
3870
3870
3870
FE70
FE70
3870
3870
3870
3870
3870
3FC0
3FC0
ENDCHAR
STARTCHAR 0111
ENCODING 273
SWIDTH 840 0
DWIDTH 14 0
BBX 12 15 0 0
BITMAP
01C0
0FF0
0FF0
01C0
01C0
3FC0
E1C0
E1C0
E1C0
E1C0
E1C0
E1C0
E1C0
3EC0
3EC0
ENDCHAR
STARTCHAR 0112
ENCODING 274
SWIDTH 720 0
DWIDTH 12 0
BBX 10 15 0 0
BITMAP
FFC0
FFC0
0000
FFC0
FFC0
E000
E000
E000
FF00
FF00
E000
E000
E000
FFC0
FFC0
ENDCHAR
STARTCHAR 0113
ENCODING 275
SWIDTH 720 0
DWIDTH 12 0
BBX 10 15 0 0
BITMAP
FFC0
FFC0
0000
7F00
FFC0
E1C0
E1C0
E1C0
FFC0
FFC0
E000
E1C0
E1C0
7F00
7F00
ENDCHAR
STARTCHAR 0114
ENCODING 276
SWIDTH 720 0
DWIDTH 12 0
BBX 10 15 0 0
BITMAP
6100
6F00
0E00
0000
0000
FFC0
FFC0
E000
FF00
FF00
E000
E000
E000
FFC0
FFC0
ENDCHAR
STARTCHAR 0115
ENCODING 277
SWIDTH 720 0
DWIDTH 12 0
BBX 10 15 0 0
BITMAP
6100
6F00
0E00
0000
0000
7F00
E1C0
E1C0
FFC0
FFC0
E000
E1C0
E1C0
7F00
7F00
ENDCHAR
STARTCHAR 0116
ENCODING 278
SWIDTH 720 0
DWIDTH 12 0
BBX 10 15 0 0
BITMAP
0E00
0E00
0000
FFC0
FFC0
E000
E000
E000
FF80
FF80
E000
E000
E000
FFC0
FFC0
ENDCHAR
STARTCHAR 0117
ENCODING 279
SWIDTH 720 0
DWIDTH 12 0
BBX 10 15 0 0
BITMAP
0E00
0E00
0000
7F00
FFC0
E1C0
E1C0
E1C0
FFC0
FFC0
E000
E1C0
E1C0
7F00
7F00
ENDCHAR
STARTCHAR 0118
ENCODING 280
SWIDTH 720 0
DWIDTH 12 0
BBX 10 17 0 -2
BITMAP
FFC0
FFC0
E000
E000
E000
FF00
FF00
E000
E000
E000
E000
E000
FFC0
FFC0
0700
01C0
01C0
ENDCHAR
STARTCHAR 0119
ENCODING 281
SWIDTH 720 0
DWIDTH 12 0
BBX 10 16 0 -2
BITMAP
7F00
7F00
E1C0
E1C0
E1C0
E1C0
FFC0
FFC0
E000
E1C0
E1C0
7F00
7F00
0700
01C0
01C0
ENDCHAR
STARTCHAR 011A
ENCODING 282
SWIDTH 720 0
DWIDTH 12 0
BBX 10 15 0 0
BITMAP
3900
3F00
0E00
0000
0000
FFC0
FFC0
E000
FF00
FF00
E000
E000
E000
FFC0
FFC0
ENDCHAR
STARTCHAR 011B
ENCODING 283
SWIDTH 720 0
DWIDTH 12 0
BBX 10 15 0 0
BITMAP
3900
3F00
0E00
0000
0000
3F00
E1C0
E1C0
FFC0
FFC0
E000
E1C0
E1C0
3F00
3F00
ENDCHAR
STARTCHAR 011C
ENCODING 284
SWIDTH 720 0
DWIDTH 12 0
BBX 10 15 0 0
BITMAP
0E00
3F00
3900
0000
0000
3F00
E1C0
E1C0
E000
E000
E7C0
E7C0
E1C0
3F00
3F00
ENDCHAR
STARTCHAR 011D
ENCODING 285
SWIDTH 720 0
DWIDTH 12 0
BBX 10 17 0 -2
BITMAP
0E00
3F00
3900
0000
0000
3EC0
3EC0
E1C0
E1C0
E1C0
E1C0
E1C0
3FC0
3FC0
01C0
3F00
3F00
ENDCHAR
STARTCHAR 011E
ENCODING 286
SWIDTH 720 0
DWIDTH 12 0
BBX 10 15 0 0
BITMAP
6100
6F00
0E00
0000
0000
7F00
E1C0
E1C0
E000
E000
E7C0
E7C0
E1C0
7F00
7F00
ENDCHAR
STARTCHAR 011F
ENCODING 287
SWIDTH 720 0
DWIDTH 12 0
BBX 10 17 0 -2
BITMAP
6100
6F00
0E00
0000
0000
7EC0
7EC0
E1C0
E1C0
E1C0
E1C0
E1C0
7FC0
7FC0
01C0
7F00
7F00
ENDCHAR
STARTCHAR 0120
ENCODING 288
SWIDTH 720 0
DWIDTH 12 0
BBX 10 15 0 0
BITMAP
0E00
0E00
0000
7F00
7F00
E1C0
E1C0
E000
E7C0
E7C0
E1C0
E1C0
E1C0
7F00
7F00
ENDCHAR
STARTCHAR 0121
ENCODING 289
SWIDTH 720 0
DWIDTH 12 0
BBX 10 17 0 -2
BITMAP
0E00
0E00
0000
3E40
3E40
E1C0
E1C0
E1C0
E1C0
E1C0
E1C0
E1C0
3FC0
3FC0
01C0
3F80
3F80
ENDCHAR
STARTCHAR 0122
ENCODING 290
SWIDTH 720 0
DWIDTH 12 0
BBX 10 17 0 -2
BITMAP
3F80
3F80
E1C0
E1C0
E000
E7C0
E7C0
E1C0
E1C0
E1C0
E1C0
E1C0
3F80
3E00
0E00
3800
3800
ENDCHAR
STARTCHAR 0123
ENCODING 291
SWIDTH 720 0
DWIDTH 12 0
BBX 10 17 0 -2
BITMAP
1800
1E00
1E00
0000
0000
3E40
3E40
E1C0
E1C0
E1C0
E1C0
E1C0
3FC0
3FC0
01C0
3F80
3F80
ENDCHAR
STARTCHAR 0124
ENCODING 292
SWIDTH 720 0
DWIDTH 12 0
BBX 10 15 0 0
BITMAP
0E00
3F00
3900
0000
0000
E1C0
E1C0
E1C0
FFC0
FFC0
E1C0
E1C0
E1C0
E1C0
E1C0
ENDCHAR
STARTCHAR 0125
ENCODING 293
SWIDTH 840 0
DWIDTH 14 0
BBX 12 15 0 0
BITMAP
3800
FE00
E600
0000
0000
3800
3FC0
3FC0
3870
3870
3870
3870
3870
3870
3870
ENDCHAR
STARTCHAR 0126
ENCODING 294
SWIDTH 840 0
DWIDTH 14 0
BBX 12 15 0 0
BITMAP
39C0
FFF0
FFF0
39C0
39C0
39C0
3FC0
3FC0
39C0
39C0
39C0
39C0
39C0
39C0
39C0
ENDCHAR
STARTCHAR 0127
ENCODING 295
SWIDTH 840 0
DWIDTH 14 0
BBX 12 15 0 0
BITMAP
3800
FF00
FF00
3800
3800
3FC0
3870
3870
3870
3870
3870
3870
3870
3870
3870
ENDCHAR
STARTCHAR 0128
ENCODING 296
SWIDTH 720 0
DWIDTH 12 0
BBX 10 15 0 0
BITMAP
3EC0
FFC0
E700
0000
0000
0E00
0E00
0E00
0E00
0E00
0E00
0E00
0E00
0E00
0E00
ENDCHAR
STARTCHAR 0129
ENCODING 297
SWIDTH 720 0
DWIDTH 12 0
BBX 10 15 0 0
BITMAP
3EC0
FFC0
E700
0000
0000
0E00
0E00
0E00
0E00
0E00
0E00
0E00
0E00
0E00
0E00
ENDCHAR
STARTCHAR 012A
ENCODING 298
SWIDTH 540 0
DWIDTH 9 0
BBX 7 15 0 0
BITMAP
FE
FE
00
38
38
38
38
38
38
38
38
38
38
38
38
ENDCHAR
STARTCHAR 012B
ENCODING 299
SWIDTH 540 0
DWIDTH 9 0
BBX 7 15 0 0
BITMAP
FE
FE
00
38
38
38
38
38
38
38
38
38
38
38
38
ENDCHAR
STARTCHAR 012C
ENCODING 300
SWIDTH 540 0
DWIDTH 9 0
BBX 7 15 0 0
BITMAP
C6
FE
38
00
00
38
38
38
38
38
38
38
38
38
38
ENDCHAR
STARTCHAR 012D
ENCODING 301
SWIDTH 540 0
DWIDTH 9 0
BBX 7 15 0 0
BITMAP
C6
FE
38
00
00
38
38
38
38
38
38
38
38
38
38
ENDCHAR
STARTCHAR 012E
ENCODING 302
SWIDTH 420 0
DWIDTH 7 0
BBX 5 17 0 -2
BITMAP
38
38
38
38
38
38
38
38
38
38
38
38
38
E0
E0
38
38
ENDCHAR
STARTCHAR 012F
ENCODING 303
SWIDTH 420 0
DWIDTH 7 0
BBX 5 17 0 -2
BITMAP
38
38
00
38
38
38
38
38
38
38
38
38
38
E0
E0
38
38
ENDCHAR
STARTCHAR 0130
ENCODING 304
SWIDTH 300 0
DWIDTH 5 0
BBX 3 15 0 0
BITMAP
E0
E0
00
E0
E0
E0
E0
E0
E0
E0
E0
E0
E0
E0
E0
ENDCHAR
STARTCHAR 0131
ENCODING 305
SWIDTH 300 0
DWIDTH 5 0
BBX 3 12 0 0
BITMAP
E0
E0
E0
E0
E0
E0
E0
E0
E0
E0
E0
E0
ENDCHAR
STARTCHAR 0132
ENCODING 306
SWIDTH 840 0
DWIDTH 14 0
BBX 12 15 0 0
BITMAP
E070
E070
E070
E070
E070
E070
E070
E070
E070
E070
E070
FE70
FE70
E7C0
E7C0
ENDCHAR
STARTCHAR 0133
ENCODING 307
SWIDTH 720 0
DWIDTH 12 0
BBX 10 17 0 -2
BITMAP
E1C0
E1C0
0000
E1C0
E1C0
E1C0
E1C0
E1C0
E1C0
E1C0
E1C0
E1C0
E1C0
E1C0
E1C0
0700
0700
ENDCHAR
STARTCHAR 0134
ENCODING 308
SWIDTH 720 0
DWIDTH 12 0
BBX 10 15 0 0
BITMAP
0700
0FC0
0EC0
0000
0700
0700
0700
0700
0700
0700
0700
E700
E700
3E00
3E00
ENDCHAR
STARTCHAR 0135
ENCODING 309
SWIDTH 540 0
DWIDTH 9 0
BBX 7 17 0 -2
BITMAP
38
FE
E6
00
00
38
38
38
38
38
38
38
38
38
38
E0
E0
ENDCHAR
STARTCHAR 0136
ENCODING 310
SWIDTH 720 0
DWIDTH 12 0
BBX 10 17 0 -2
BITMAP
E1C0
E1C0
E1C0
E1C0
E1C0
FF80
FF80
E1C0
E1C0
E1C0
E1C0
E1C0
E1C0
0E00
0E00
3800
3800
ENDCHAR
STARTCHAR 0137
ENCODING 311
SWIDTH 720 0
DWIDTH 12 0
BBX 10 17 0 -2
BITMAP
E000
E000
E000
E1C0
E1C0
E1C0
E180
FF80
E1C0
E1C0
E1C0
E1C0
E1C0
0E00
0E00
3800
3800
ENDCHAR
STARTCHAR 0138
ENCODING 312
SWIDTH 720 0
DWIDTH 12 0
BBX 10 12 0 0
BITMAP
E1C0
E1C0
E1C0
E1C0
E1C0
FF00
FF00
E1C0
E1C0
E1C0
E1C0
E1C0
ENDCHAR
STARTCHAR 0139
ENCODING 313
SWIDTH 720 0
DWIDTH 12 0
BBX 10 15 0 0
BITMAP
3800
F800
E000
0000
0000
E000
E000
E000
E000
E000
E000
E000
E000
FFC0
FFC0
ENDCHAR
STARTCHAR 013A
ENCODING 314
SWIDTH 420 0
DWIDTH 7 0
BBX 5 15 0 0
BITMAP
38
F8
E0
00
00
E0
E0
E0
E0
E0
E0
E0
E0
E0
E0
ENDCHAR
STARTCHAR 013B
ENCODING 315
SWIDTH 720 0
DWIDTH 12 0
BBX 10 17 0 -2
BITMAP
E000
E000
E000
E000
E000
E000
E000
E000
E000
E000
E000
FFC0
FFC0
0E00
0E00
3800
3800
ENDCHAR
STARTCHAR 013C
ENCODING 316
SWIDTH 420 0
DWIDTH 7 0
BBX 5 17 0 -2
BITMAP
38
38
38
38
38
38
38
38
38
38
38
38
38
38
38
E0
E0
ENDCHAR
STARTCHAR 013D
ENCODING 317
SWIDTH 720 0
DWIDTH 12 0
BBX 10 15 0 0
BITMAP
E3C0
E3C0
E3C0
E0C0
E0C0
E300
E300
E000
E000
E000
E000
E000
E000
FFC0
FFC0
ENDCHAR
STARTCHAR 013E
ENCODING 318
SWIDTH 720 0
DWIDTH 12 0
BBX 10 15 0 0
BITMAP
E3C0
E3C0
E3C0
E0C0
E0C0
E300
E300
E000
E000
E000
E000
E000
E000
E000
E000
ENDCHAR
STARTCHAR 013F
ENCODING 319
SWIDTH 720 0
DWIDTH 12 0
BBX 10 15 0 0
BITMAP
E000
E000
E000
E000
E000
E1C0
E1C0
E1C0
E000
E000
E000
E000
E000
FFC0
FFC0
ENDCHAR
STARTCHAR 0140
ENCODING 320
SWIDTH 600 0
DWIDTH 10 0
BBX 8 15 0 0
BITMAP
E0
E0
E0
E0
E0
E7
E7
E7
E0
E0
E0
E0
E0
E0
E0
ENDCHAR
STARTCHAR 0141
ENCODING 321
SWIDTH 840 0
DWIDTH 14 0
BBX 11 15 1 0
BITMAP
7000
7000
7000
7300
7300
7F00
7C00
FC00
F000
F000
7000
7000
7000
7FE0
7FE0
ENDCHAR
STARTCHAR 0142
ENCODING 322
SWIDTH 660 0
DWIDTH 11 0
BBX 8 15 1 0
BITMAP
70
70
70
73
73
7F
7C
FC
F0
F0
70
70
70
70
70
ENDCHAR
STARTCHAR 0143
ENCODING 323
SWIDTH 720 0
DWIDTH 12 0
BBX 10 15 0 0
BITMAP
0700
0F00
0E00
0000
0000
E1C0
E1C0
F9C0
FFC0
FFC0
E7C0
E1C0
E1C0
E1C0
E1C0
ENDCHAR
STARTCHAR 0144
ENCODING 324
SWIDTH 720 0
DWIDTH 12 0
BBX 10 15 0 0
BITMAP
0700
0F00
0E00
0000
0000
CF00
F1C0
F1C0
F1C0
F1C0
F1C0
F1C0
F1C0
F1C0
F1C0
ENDCHAR
STARTCHAR 0145
ENCODING 325
SWIDTH 720 0
DWIDTH 12 0
BBX 10 17 0 -2
BITMAP
E1C0
E1C0
E1C0
F9C0
F9C0
FFC0
E7C0
E7C0
E1C0
E1C0
E1C0
E1C0
E1C0
0E00
0E00
3800
3800
ENDCHAR
STARTCHAR 0146
ENCODING 326
SWIDTH 720 0
DWIDTH 12 0
BBX 10 14 0 -2
BITMAP
CF80
CF80
F1C0
F1C0
F1C0
F1C0
F1C0
F1C0
F1C0
F1C0
0E00
0E00
3800
3800
ENDCHAR
STARTCHAR 0147
ENCODING 327
SWIDTH 720 0
DWIDTH 12 0
BBX 10 15 0 0
BITMAP
3900
3F00
0E00
0000
0000
E1C0
E1C0
F9C0
FFC0
FFC0
E7C0
E1C0
E1C0
E1C0
E1C0
ENDCHAR
STARTCHAR 0148
ENCODING 328
SWIDTH 720 0
DWIDTH 12 0
BBX 10 15 0 0
BITMAP
3900
3F00
0E00
0000
0000
CF00
F1C0
F1C0
F1C0
F1C0
F1C0
F1C0
F1C0
F1C0
F1C0
ENDCHAR
STARTCHAR 0149
ENCODING 329
SWIDTH 840 0
DWIDTH 14 0
BBX 12 15 0 0
BITMAP
E000
E000
2000
D9C0
D9C0
1E70
1E70
1E70
1E70
1E70
1E70
1E70
1E70
1E70
1E70
ENDCHAR
STARTCHAR 014A
ENCODING 330
SWIDTH 720 0
DWIDTH 12 0
BBX 10 17 0 -2
BITMAP
E1C0
E1C0
E1C0
F9C0
F9C0
FFC0
E7C0
E7C0
E1C0
E1C0
E1C0
E1C0
E1C0
E1C0
E1C0
0700
0700
ENDCHAR
STARTCHAR 014B
ENCODING 331
SWIDTH 720 0
DWIDTH 12 0
BBX 10 14 0 -2
BITMAP
DF00
DF00
E1C0
E1C0
E1C0
E1C0
E1C0
E1C0
E1C0
E1C0
E1C0
E1C0
0700
0700
ENDCHAR
STARTCHAR 014C
ENCODING 332
SWIDTH 720 0
DWIDTH 12 0
BBX 10 15 0 0
BITMAP
FFC0
FFC0
0000
7F00
7F00
E1C0
E1C0
E1C0
E1C0
E1C0
E1C0
E1C0
E1C0
7F00
7F00
ENDCHAR
STARTCHAR 014D
ENCODING 333
SWIDTH 720 0
DWIDTH 12 0
BBX 10 15 0 0
BITMAP
FFC0
FFC0
0000
7F00
7F00
E1C0
E1C0
E1C0
E1C0
E1C0
E1C0
E1C0
E1C0
7F00
7F00
ENDCHAR
STARTCHAR 014E
ENCODING 334
SWIDTH 720 0
DWIDTH 12 0
BBX 10 15 0 0
BITMAP
6100
6F00
0E00
0000
0000
7F00
E1C0
E1C0
E1C0
E1C0
E1C0
E1C0
E1C0
7F00
7F00
ENDCHAR
STARTCHAR 014F
ENCODING 335
SWIDTH 720 0
DWIDTH 12 0
BBX 10 15 0 0
BITMAP
6100
6F00
0E00
0000
0000
7F00
E1C0
E1C0
E1C0
E1C0
E1C0
E1C0
E1C0
7F00
7F00
ENDCHAR
STARTCHAR 0150
ENCODING 336
SWIDTH 720 0
DWIDTH 12 0
BBX 10 15 0 0
BITMAP
39C0
FFC0
E700
0000
0000
3F00
E1C0
E1C0
E1C0
E1C0
E1C0
E1C0
E1C0
3F00
3F00
ENDCHAR
STARTCHAR 0151
ENCODING 337
SWIDTH 720 0
DWIDTH 12 0
BBX 10 15 0 0
BITMAP
39C0
FFC0
E700
0000
0000
3F00
E1C0
E1C0
E1C0
E1C0
E1C0
E1C0
E1C0
3F00
3F00
ENDCHAR
STARTCHAR 0152
ENCODING 338
SWIDTH 840 0
DWIDTH 14 0
BBX 12 15 0 0
BITMAP
3FF0
FFF0
E700
E700
E700
E700
E7F0
E7F0
E700
E700
E700
E700
E700
3FF0
3FF0
ENDCHAR
STARTCHAR 0153
ENCODING 339
SWIDTH 840 0
DWIDTH 14 0
BBX 12 12 0 0
BITMAP
3FC0
3FC0
E670
E670
E670
E7F0
E7F0
E780
E7B0
E7B0
39C0
39C0
ENDCHAR
STARTCHAR 0154
ENCODING 340
SWIDTH 720 0
DWIDTH 12 0
BBX 10 15 0 0
BITMAP
0700
0F00
0E00
0000
0000
FF00
FF00
E1C0
E1C0
E1C0
FF00
FF00
E1C0
E1C0
E1C0
ENDCHAR
STARTCHAR 0155
ENCODING 341
SWIDTH 720 0
DWIDTH 12 0
BBX 10 15 0 0
BITMAP
0700
0F00
0E00
0000
0000
CF00
F1C0
F1C0
F1C0
F000
F000
F000
F000
F000
F000
ENDCHAR
STARTCHAR 0156
ENCODING 342
SWIDTH 720 0
DWIDTH 12 0
BBX 10 17 0 -2
BITMAP
FF80
FF80
E1C0
E1C0
E1C0
E1C0
E1C0
FF80
E1C0
E1C0
E1C0
E1C0
E1C0
0E00
0E00
3800
3800
ENDCHAR
STARTCHAR 0157
ENCODING 343
SWIDTH 720 0
DWIDTH 12 0
BBX 10 14 0 -2
BITMAP
6700
6700
79C0
79C0
79C0
7800
7800
7800
7800
7800
7800
7800
E000
E000
ENDCHAR
STARTCHAR 0158
ENCODING 344
SWIDTH 720 0
DWIDTH 12 0
BBX 10 15 0 0
BITMAP
3900
3F00
0E00
0000
0000
FF00
FF00
E1C0
E1C0
E1C0
FF00
FF00
E1C0
E1C0
E1C0
ENDCHAR
STARTCHAR 0159
ENCODING 345
SWIDTH 720 0
DWIDTH 12 0
BBX 10 15 0 0
BITMAP
3900
3F00
0E00
0000
0000
CF00
F1C0
F1C0
F1C0
F000
F000
F000
F000
F000
F000
ENDCHAR
STARTCHAR 015A
ENCODING 346
SWIDTH 720 0
DWIDTH 12 0
BBX 10 15 0 0
BITMAP
0700
0F00
0E00
0000
0000
7F00
E1C0
E1C0
F800
F800
07C0
E1C0
E1C0
7F00
7F00
ENDCHAR
STARTCHAR 015B
ENCODING 347
SWIDTH 720 0
DWIDTH 12 0
BBX 10 15 0 0
BITMAP
0700
0F00
0E00
0000
0000
7F00
E1C0
E1C0
F800
F800
07C0
E1C0
E1C0
7F00
7F00
ENDCHAR
STARTCHAR 015C
ENCODING 348
SWIDTH 720 0
DWIDTH 12 0
BBX 10 15 0 0
BITMAP
0E00
3F00
3900
0000
0000
3F00
E1C0
E1C0
F800
F800
07C0
E1C0
E1C0
3F00
3F00
ENDCHAR
STARTCHAR 015D
ENCODING 349
SWIDTH 720 0
DWIDTH 12 0
BBX 10 15 0 0
BITMAP
0E00
3F00
3900
0000
0000
3F00
E1C0
E1C0
F800
F800
07C0
E1C0
E1C0
3F00
3F00
ENDCHAR
STARTCHAR 015E
ENCODING 350
SWIDTH 720 0
DWIDTH 12 0
BBX 10 17 0 -2
BITMAP
3F80
3F80
E1C0
E1C0
E000
3F80
3F80
01C0
01C0
01C0
E1C0
E1C0
3F80
3E00
0E00
3800
3800
ENDCHAR
STARTCHAR 015F
ENCODING 351
SWIDTH 720 0
DWIDTH 12 0
BBX 10 14 0 -2
BITMAP
3F80
3F80
E1C0
E1C0
F800
07C0
07C0
E1C0
E1C0
3F80
3E00
0E00
3800
3800
ENDCHAR
STARTCHAR 0160
ENCODING 352
SWIDTH 720 0
DWIDTH 12 0
BBX 10 15 0 0
BITMAP
3900
3F00
0E00
0000
0000
3F00
E1C0
E1C0
F800
F800
07C0
E1C0
E1C0
3F00
3F00
ENDCHAR
STARTCHAR 0161
ENCODING 353
SWIDTH 720 0
DWIDTH 12 0
BBX 10 15 0 0
BITMAP
3900
3F00
0E00
0000
0000
3F00
E1C0
E1C0
F800
F800
07C0
E1C0
E1C0
3F00
3F00
ENDCHAR
STARTCHAR 0162
ENCODING 354
SWIDTH 720 0
DWIDTH 12 0
BBX 10 17 0 -2
BITMAP
FFC0
FFC0
0E00
0E00
0E00
0E00
0E00
0E00
0E00
0E00
0E00
0E00
0E00
0E00
0E00
3800
3800
ENDCHAR
STARTCHAR 0163
ENCODING 355
SWIDTH 720 0
DWIDTH 12 0
BBX 10 14 0 -2
BITMAP
3800
3800
FFC0
FFC0
3800
3800
3800
3800
3800
3800
1F00
1F00
3800
3800
ENDCHAR
STARTCHAR 0164
ENCODING 356
SWIDTH 720 0
DWIDTH 12 0
BBX 10 15 0 0
BITMAP
3900
3F00
0E00
0000
0000
FFC0
FFC0
0E00
0E00
0E00
0E00
0E00
0E00
0E00
0E00
ENDCHAR
STARTCHAR 0165
ENCODING 357
SWIDTH 840 0
DWIDTH 14 0
BBX 12 14 0 0
BITMAP
3830
3830
3830
3800
FF00
FF00
3800
3800
3800
3800
3800
3800
1F00
1F00
ENDCHAR
STARTCHAR 0166
ENCODING 358
SWIDTH 720 0
DWIDTH 12 0
BBX 10 15 0 0
BITMAP
FFC0
FFC0
0E00
0E00
0E00
7F00
7F00
0E00
0E00
0E00
0E00
0E00
0E00
0E00
0E00
ENDCHAR
STARTCHAR 0167
ENCODING 359
SWIDTH 720 0
DWIDTH 12 0
BBX 10 14 0 0
BITMAP
3800
3800
3800
3800
FFC0
FFC0
3800
FF00
FF00
3800
3800
3800
1F00
1F00
ENDCHAR
STARTCHAR 0168
ENCODING 360
SWIDTH 720 0
DWIDTH 12 0
BBX 10 15 0 0
BITMAP
3EC0
FFC0
E700
0000
0000
E1C0
E1C0
E1C0
E1C0
E1C0
E1C0
E1C0
E1C0
3F00
3F00
ENDCHAR
STARTCHAR 0169
ENCODING 361
SWIDTH 720 0
DWIDTH 12 0
BBX 10 15 0 0
BITMAP
3EC0
FFC0
E700
0000
0000
E1C0
E1C0
E1C0
E1C0
E1C0
E1C0
E1C0
E1C0
3EC0
3EC0
ENDCHAR
STARTCHAR 016A
ENCODING 362
SWIDTH 720 0
DWIDTH 12 0
BBX 10 15 0 0
BITMAP
FFC0
FFC0
0000
E1C0
E1C0
E1C0
E1C0
E1C0
E1C0
E1C0
E1C0
E1C0
E1C0
7F00
7F00
ENDCHAR
STARTCHAR 016B
ENCODING 363
SWIDTH 720 0
DWIDTH 12 0
BBX 10 15 0 0
BITMAP
FFC0
FFC0
0000
E1C0
E1C0
E1C0
E1C0
E1C0
E1C0
E1C0
E1C0
E1C0
E1C0
3EC0
3EC0
ENDCHAR
STARTCHAR 016C
ENCODING 364
SWIDTH 720 0
DWIDTH 12 0
BBX 10 15 0 0
BITMAP
6100
6F00
0E00
0000
0000
E1C0
E1C0
E1C0
E1C0
E1C0
E1C0
E1C0
E1C0
7F00
7F00
ENDCHAR
STARTCHAR 016D
ENCODING 365
SWIDTH 720 0
DWIDTH 12 0
BBX 10 15 0 0
BITMAP
6100
6F00
0E00
0000
0000
E1C0
E1C0
E1C0
E1C0
E1C0
E1C0
E1C0
E1C0
7EC0
7EC0
ENDCHAR
STARTCHAR 016E
ENCODING 366
SWIDTH 720 0
DWIDTH 12 0
BBX 10 15 0 0
BITMAP
0E00
6F00
6100
0E00
0E00
E1C0
E1C0
E1C0
E1C0
E1C0
E1C0
E1C0
E1C0
7F00
7F00
ENDCHAR
STARTCHAR 016F
ENCODING 367
SWIDTH 720 0
DWIDTH 12 0
BBX 10 15 0 0
BITMAP
0E00
6F00
6100
0E00
0E00
E1C0
E1C0
E1C0
E1C0
E1C0
E1C0
E1C0
E1C0
7EC0
7EC0
ENDCHAR
STARTCHAR 0170
ENCODING 368
SWIDTH 720 0
DWIDTH 12 0
BBX 10 15 0 0
BITMAP
39C0
FFC0
E700
0000
0000
E1C0
E1C0
E1C0
E1C0
E1C0
E1C0
E1C0
E1C0
3F00
3F00
ENDCHAR
STARTCHAR 0171
ENCODING 369
SWIDTH 720 0
DWIDTH 12 0
BBX 10 15 0 0
BITMAP
39C0
FFC0
E700
0000
0000
E1C0
E1C0
E1C0
E1C0
E1C0
E1C0
E1C0
E1C0
3EC0
3EC0
ENDCHAR
STARTCHAR 0172
ENCODING 370
SWIDTH 720 0
DWIDTH 12 0
BBX 10 17 0 -2
BITMAP
E1C0
E1C0
E1C0
E1C0
E1C0
E1C0
E1C0
E1C0
E1C0
E1C0
E1C0
E1C0
7F00
7E00
0E00
0700
0700
ENDCHAR
STARTCHAR 0173
ENCODING 371
SWIDTH 720 0
DWIDTH 12 0
BBX 10 14 0 -2
BITMAP
E1C0
E1C0
E1C0
E1C0
E1C0
E1C0
E1C0
E1C0
E1C0
3EC0
0700
0700
01C0
01C0
ENDCHAR
STARTCHAR 0174
ENCODING 372
SWIDTH 840 0
DWIDTH 14 0
BBX 12 15 0 0
BITMAP
0600
1F00
1900
0000
0000
E070
E070
E070
E670
E670
FFF0
F9F0
F9F0
E070
E070
ENDCHAR
STARTCHAR 0175
ENCODING 373
SWIDTH 780 0
DWIDTH 13 0
BBX 11 15 0 0
BITMAP
0600
1F00
1900
0000
E0E0
E0E0
E0E0
E0E0
E0E0
E0E0
E6E0
E6E0
FFE0
39C0
39C0
ENDCHAR
STARTCHAR 0176
ENCODING 374
SWIDTH 720 0
DWIDTH 12 0
BBX 10 15 0 0
BITMAP
0E00
3F00
3900
0000
0000
E1C0
E1C0
E1C0
E1C0
E1C0
3F00
3F00
0E00
0E00
0E00
ENDCHAR
STARTCHAR 0177
ENCODING 375
SWIDTH 720 0
DWIDTH 12 0
BBX 10 17 0 -2
BITMAP
0E00
3F00
3900
0000
0000
E1C0
E1C0
E1C0
E1C0
E1C0
E1C0
E1C0
3FC0
3FC0
01C0
3F00
3F00
ENDCHAR
STARTCHAR 0178
ENCODING 376
SWIDTH 720 0
DWIDTH 12 0
BBX 10 15 0 0
BITMAP
E1C0
E1C0
0000
E1C0
E1C0
E1C0
E1C0
E1C0
7F00
7F00
0E00
0E00
0E00
0E00
0E00
ENDCHAR
STARTCHAR 0179
ENCODING 377
SWIDTH 720 0
DWIDTH 12 0
BBX 10 15 0 0
BITMAP
0700
0F00
0E00
0000
0000
FFC0
FFC0
0700
0E00
0800
3800
E000
E000
FFC0
FFC0
ENDCHAR
STARTCHAR 017A
ENCODING 378
SWIDTH 720 0
DWIDTH 12 0
BBX 10 15 0 0
BITMAP
0700
0F00
0E00
0000
0000
FFC0
FFC0
0700
0E00
0800
3800
E000
E000
FFC0
FFC0
ENDCHAR
STARTCHAR 017B
ENCODING 379
SWIDTH 720 0
DWIDTH 12 0
BBX 10 15 0 0
BITMAP
0E00
0E00
0000
FFC0
FFC0
01C0
01C0
0700
0E00
0E00
3800
E000
E000
FFC0
FFC0
ENDCHAR
STARTCHAR 017C
ENCODING 380
SWIDTH 720 0
DWIDTH 12 0
BBX 10 15 0 0
BITMAP
0E00
0E00
0000
FFC0
FFC0
01C0
01C0
0700
0E00
0E00
3800
E000
E000
FFC0
FFC0
ENDCHAR
STARTCHAR 017D
ENCODING 381
SWIDTH 720 0
DWIDTH 12 0
BBX 10 15 0 0
BITMAP
3900
3F00
0E00
0000
0000
FFC0
FFC0
0700
0E00
0800
3800
E000
E000
FFC0
FFC0
ENDCHAR
STARTCHAR 017E
ENCODING 382
SWIDTH 720 0
DWIDTH 12 0
BBX 10 15 0 0
BITMAP
3900
3F00
0E00
0000
0000
FFC0
FFC0
0700
0E00
0800
3800
E000
E000
FFC0
FFC0
ENDCHAR
STARTCHAR 017F
ENCODING 383
SWIDTH 720 0
DWIDTH 12 0
BBX 9 15 1 0
BITMAP
1F00
7F80
7380
7000
7000
7000
F000
F000
7000
7000
7000
7000
7000
7000
7000
ENDCHAR
STARTCHAR 02C6
ENCODING 710
SWIDTH 540 0
DWIDTH 9 0
BBX 7 4 0 12
BITMAP
38
38
E6
E6
ENDCHAR
STARTCHAR 02DA
ENCODING 730
SWIDTH 540 0
DWIDTH 9 0
BBX 7 5 0 10
BITMAP
38
E6
E6
38
38
ENDCHAR
STARTCHAR 02DC
ENCODING 732
SWIDTH 720 0
DWIDTH 12 0
BBX 10 4 0 12
BITMAP
3EC0
3EC0
E700
E700
ENDCHAR
STARTCHAR 1E9E
ENCODING 7838
SWIDTH 720 0
DWIDTH 12 0
BBX 10 15 0 0
BITMAP
3E00
FF00
E700
E1C0
E1C0
E700
E1C0
E1C0
E1C0
E1C0
E1C0
E1C0
E1C0
E700
E700
ENDCHAR
STARTCHAR 2013
ENCODING 8211
SWIDTH 720 0
DWIDTH 12 0
BBX 10 2 0 7
BITMAP
FFC0
FFC0
ENDCHAR
STARTCHAR 2014
ENCODING 8212
SWIDTH 840 0
DWIDTH 14 0
BBX 12 2 0 7
BITMAP
FFF0
FFF0
ENDCHAR
STARTCHAR 2018
ENCODING 8216
SWIDTH 300 0
DWIDTH 5 0
BBX 3 6 0 9
BITMAP
20
20
C0
E0
E0
E0
ENDCHAR
STARTCHAR 2019
ENCODING 8217
SWIDTH 300 0
DWIDTH 5 0
BBX 3 7 0 8
BITMAP
E0
E0
E0
20
20
C0
C0
ENDCHAR
STARTCHAR 201A
ENCODING 8218
SWIDTH 300 0
DWIDTH 5 0
BBX 3 7 0 -2
BITMAP
E0
E0
E0
20
20
C0
C0
ENDCHAR
STARTCHAR 201B
ENCODING 8219
SWIDTH 300 0
DWIDTH 5 0
BBX 3 7 0 8
BITMAP
E0
E0
E0
C0
C0
20
20
ENDCHAR
STARTCHAR 201C
ENCODING 8220
SWIDTH 600 0
DWIDTH 10 0
BBX 8 6 0 9
BITMAP
21
21
C6
E7
E7
E7
ENDCHAR
STARTCHAR 201D
ENCODING 8221
SWIDTH 600 0
DWIDTH 10 0
BBX 8 7 0 8
BITMAP
E7
E7
E7
21
21
C6
C6
ENDCHAR
STARTCHAR 201E
ENCODING 8222
SWIDTH 600 0
DWIDTH 10 0
BBX 8 7 0 -2
BITMAP
E7
E7
E7
21
21
C6
C6
ENDCHAR
STARTCHAR 2020
ENCODING 8224
SWIDTH 720 0
DWIDTH 12 0
BBX 10 15 0 0
BITMAP
0E00
0E00
0E00
FFC0
FFC0
0E00
0E00
0E00
0E00
0E00
0E00
0E00
0E00
0E00
0E00
ENDCHAR
STARTCHAR 2022
ENCODING 8226
SWIDTH 540 0
DWIDTH 9 0
BBX 7 7 0 3
BITMAP
38
38
FE
FE
FE
38
38
ENDCHAR
STARTCHAR 2026
ENCODING 8230
SWIDTH 840 0
DWIDTH 14 0
BBX 12 3 0 0
BITMAP
E730
E730
E730
ENDCHAR
STARTCHAR 2039
ENCODING 8249
SWIDTH 540 0
DWIDTH 9 0
BBX 7 9 0 3
BITMAP
0E
0E
38
E0
E0
38
38
0E
0E
ENDCHAR
STARTCHAR 203A
ENCODING 8250
SWIDTH 540 0
DWIDTH 9 0
BBX 7 9 0 3
BITMAP
E0
E0
38
0E
0E
38
38
E0
E0
ENDCHAR
STARTCHAR 2044
ENCODING 8260
SWIDTH 780 0
DWIDTH 13 0
BBX 11 13 0 0
BITMAP
00E0
00E0
00E0
01C0
01C0
0700
0E00
0E00
3800
2000
E000
E000
E000
ENDCHAR
STARTCHAR 2074
ENCODING 8308
SWIDTH 720 0
DWIDTH 12 0
BBX 10 12 0 3
BITMAP
E1C0
E1C0
E1C0
E1C0
E1C0
E1C0
E1C0
FFC0
FFC0
01C0
01C0
01C0
ENDCHAR
STARTCHAR 20AC
ENCODING 8364
SWIDTH 720 0
DWIDTH 12 0
BBX 10 15 0 0
BITMAP
1F00
3FC0
39C0
3800
3800
FF00
FF00
3800
FF00
FF00
3800
39C0
39C0
1F00
1F00
ENDCHAR
STARTCHAR 2122
ENCODING 8482
SWIDTH 780 0
DWIDTH 13 0
BBX 12 8 0 7
BITMAP
FE30
FE30
37F0
3630
3630
3630
3630
3630
ENDCHAR
STARTCHAR 2212
ENCODING 8722
SWIDTH 720 0
DWIDTH 12 0
BBX 10 2 0 7
BITMAP
FFC0
FFC0
ENDCHAR
STARTCHAR 2215
ENCODING 8725
SWIDTH 720 0
DWIDTH 12 0
BBX 10 15 0 0
BITMAP
01C0
0700
0700
0700
0700
1E00
1E00
1E00
3800
3800
3800
3800
E000
E000
E000
ENDCHAR
ENDFONT
